<?xml version="1.0" encoding="UTF-8" standalone="no"?>
<svg
   xmlns:dc="http://purl.org/dc/elements/1.1/"
   xmlns:cc="http://creativecommons.org/ns#"
   xmlns:rdf="http://www.w3.org/1999/02/22-rdf-syntax-ns#"
   xmlns:svg="http://www.w3.org/2000/svg"
   xmlns="http://www.w3.org/2000/svg"
   viewBox="0 0 933.33331 666.66669"
   height="666.66669"
   width="933.33331"
   xml:space="preserve"
   id="svg2"
   version="1.1"><metadata
     id="metadata8"><rdf:RDF><cc:Work
         rdf:about=""><dc:format>image/svg+xml</dc:format><dc:type
           rdf:resource="http://purl.org/dc/dcmitype/StillImage" /></cc:Work></rdf:RDF></metadata><defs
     id="defs6"><clipPath
       id="clipPath18"
       clipPathUnits="userSpaceOnUse"><path
         id="path16"
         d="M 0,500 H 700 V 0 H 0 Z" /></clipPath></defs><g
     transform="matrix(1.3333333,0,0,-1.3333333,0,666.66667)"
     id="g10"><g
       id="g12"><g
         clip-path="url(#clipPath18)"
         id="g14"><g
           transform="translate(361.9351,106.5312)"
           id="g20"><path
             id="path22"
             style="fill:#000000;fill-opacity:1;fill-rule:nonzero;stroke:none"
             d="m 0,0 -0.006,164.644 33.793,4.162 5.226,-25.805 c 11.056,17.716 27.08,26.575 48.07,26.575 4.403,0 7.988,-0.206 10.757,-0.618 l -0.617,-33.64 c -4.097,0.618 -8.347,0.923 -12.75,0.923 -14.848,0 -25.934,-3.938 -33.252,-11.82 -7.324,-7.889 -10.98,-18.845 -10.98,-32.876 V 0 Z" /></g><g
           transform="translate(132.4016,299.5362)"
           id="g24"><path
             id="path26"
             style="fill:#008cff;fill-opacity:1;fill-rule:nonzero;stroke:none"
             d="m 0,0 v 156.703 c 0,0 -50.698,-25.258 -50.698,-78.972 C -50.698,24.018 0,0 0,0" /></g><g
           transform="translate(132.4016,456.2402)"
           id="g28"><path
             id="path30"
             style="fill:#0cbfe8;fill-opacity:1;fill-rule:nonzero;stroke:none"
             d="M 0,0 C 0,0 50.698,-25.258 50.698,-78.978 50.698,-132.685 0,-156.703 0,-156.703 Z" /></g><g
           transform="translate(250.7489,225.8138)"
           id="g32"><path
             id="path34"
             style="fill:#008cff;fill-opacity:1;fill-rule:nonzero;stroke:none"
             d="m 0,0 69.667,39.618 c 0,0 -24.053,16.153 -47.93,2.574 C -2.14,28.608 0,0 0,0" /></g><g
           transform="translate(320.4126,265.4335)"
           id="g36"><path
             id="path38"
             style="fill:#0cbfe8;fill-opacity:1;fill-rule:nonzero;stroke:none"
             d="m 0,0 c 0,0 1.587,-28.926 -22.29,-42.504 -23.876,-13.579 -47.377,2.886 -47.377,2.886 z" /></g><g
           transform="translate(294.2917,228.5953)"
           id="g40"><path
             id="path42"
             style="fill:#000000;fill-opacity:1;fill-rule:nonzero;stroke:none"
             d="m 0,0 c -9.334,-5.373 -19.874,-4.42 -27.827,-2.275 l 14.066,8.106 c 3.351,1.916 4.527,6.242 2.587,9.593 -1.946,3.374 -6.243,4.526 -9.623,2.58 L -34.78,9.946 c 2.122,7.935 6.571,17.493 15.853,22.842 13.425,7.747 29.972,2.839 37.566,-0.183 C 17.493,24.529 13.525,7.8 0,0 m -144.247,-150.46 c -2.939,2.868 -6.572,5.014 -10.61,6.189 v 47.289 c 4.397,1.252 8.311,3.686 11.35,6.907 l 41.77,-24.089 c -0.794,-2.457 -1.229,-5.066 -1.229,-7.776 0,-1.511 0.124,-3.021 0.406,-4.45 z m -76.979,24.07 c 0.282,1.429 0.411,2.939 0.411,4.45 0,2.71 -0.435,5.319 -1.228,7.747 l 41.787,24.088 c 3.045,-3.191 6.96,-5.625 11.333,-6.877 v -47.289 c -4.044,-1.175 -7.671,-3.321 -10.616,-6.189 z M -179.515,7.8 c 2.944,-2.839 6.548,-4.961 10.592,-6.113 V -48.13 c -3.656,-1.052 -6.96,-2.892 -9.746,-5.372 l -42.886,24.752 c 0.482,1.975 0.74,4.015 0.74,6.143 0,2.122 -0.258,4.167 -0.74,6.137 z m -26.546,139.745 c 0,37.366 32.941,64.423 44.168,72.552 11.256,-8.106 44.168,-35.062 44.168,-72.552 0,-31.283 -23.142,-53.943 -37.132,-64.782 v 59.074 c 0,3.891 -3.145,7.036 -7.036,7.036 -3.885,0 -7.03,-3.145 -7.03,-7.036 V 82.733 c -14.019,10.822 -37.138,33.429 -37.138,64.812 M -102.225,-16.47 c -0.488,-1.97 -0.741,-4.015 -0.741,-6.137 0,-2.175 0.282,-4.273 0.794,-6.295 l -42.839,-24.676 c -2.792,2.504 -6.137,4.396 -9.846,5.448 V 1.687 c 4.038,1.152 7.647,3.274 10.586,6.113 z m -48.335,-56.547 c -0.106,-3.45 -1.769,-6.472 -4.297,-8.465 -0.511,-0.382 -1.076,-0.77 -1.64,-1.075 -1.611,-0.87 -3.45,-1.352 -5.396,-1.352 -1.893,0 -3.709,0.482 -5.29,1.328 -0.618,0.306 -1.205,0.688 -1.74,1.099 -2.557,2.017 -4.221,5.114 -4.297,8.594 -0.029,0.1 -0.029,0.229 -0.029,0.329 0,1.029 0.129,1.999 0.411,2.945 0.617,2.404 2.022,4.474 3.915,5.984 1.228,0.947 2.657,1.664 4.214,2.069 0.9,0.229 1.846,0.359 2.816,0.359 1.023,0 1.998,-0.13 2.939,-0.406 1.511,-0.388 2.892,-1.099 4.097,-2.022 1.84,-1.487 3.25,-3.503 3.885,-5.854 0.282,-0.976 0.435,-1.999 0.435,-3.075 0,-0.153 0,-0.305 -0.023,-0.429 z m -18.363,108.032 c 1.94,1.505 4.397,2.428 7.03,2.428 2.633,0 5.09,-0.923 7.036,-2.428 2.222,-1.769 3.756,-4.326 4.191,-7.265 0.076,-0.541 0.129,-1.099 0.129,-1.663 0,-3.604 -1.687,-6.831 -4.32,-8.9 -0.847,-0.664 -1.816,-1.228 -2.839,-1.61 -1.305,-0.535 -2.716,-0.817 -4.197,-0.817 -1.481,0 -2.886,0.282 -4.191,0.817 -1.023,0.382 -1.999,0.946 -2.839,1.61 -2.639,2.069 -4.326,5.296 -4.326,8.9 0,0.564 0.052,1.122 0.129,1.663 0.435,2.939 1.969,5.496 4.197,7.265 m -88.671,-57.622 c 0,6.266 5.091,11.35 11.357,11.35 1.458,0 2.862,-0.276 4.167,-0.787 3.709,-1.458 6.472,-4.838 7.06,-8.929 0.076,-0.535 0.129,-1.07 0.129,-1.634 0,-0.564 -0.053,-1.099 -0.129,-1.64 -0.412,-2.963 -1.993,-5.549 -4.221,-7.289 -0.846,-0.664 -1.786,-1.228 -2.815,-1.61 -1.299,-0.535 -2.71,-0.817 -4.191,-0.817 -2.663,0 -5.114,0.917 -7.06,2.457 -2.61,2.069 -4.297,5.296 -4.297,8.899 m 22.713,-99.333 c 0,-4.091 -2.175,-7.677 -5.425,-9.669 -1.711,-1.076 -3.756,-1.687 -5.931,-1.687 -6.266,0 -11.357,5.084 -11.357,11.356 0,3.603 1.687,6.83 4.297,8.899 1.946,1.535 4.397,2.457 7.06,2.457 0.664,0 1.328,-0.053 1.969,-0.182 1.893,-0.329 3.603,-1.123 5.037,-2.251 1.664,-1.305 2.939,-3.069 3.657,-5.091 0.411,-1.099 0.64,-2.274 0.664,-3.503 0.029,-0.1 0.029,-0.229 0.029,-0.329 m 48.077,44.267 -43.116,-24.828 c -2.686,2.274 -5.86,3.985 -9.311,4.984 v 50.487 c 4.039,1.146 7.648,3.297 10.587,6.136 l 42.381,-24.476 c -0.694,-2.275 -1.053,-4.679 -1.053,-7.189 0,-1.74 0.183,-3.45 0.512,-5.084 z m 24.911,-102.348 c -5.678,0 -10.381,4.167 -11.227,9.616 -0.077,0.559 -0.129,1.123 -0.129,1.711 0,4.755 2.944,8.823 7.083,10.51 1.334,0.541 2.768,0.846 4.273,0.846 1.511,0 2.939,-0.305 4.273,-0.846 4.144,-1.687 7.083,-5.755 7.083,-10.51 0,-0.588 -0.053,-1.152 -0.129,-1.711 -0.841,-5.449 -5.549,-9.616 -11.227,-9.616 m 77.343,82.504 c -3.456,-0.999 -6.601,-2.686 -9.287,-4.961 l -43.121,24.882 v 0.029 c 0.305,1.611 0.487,3.298 0.487,5.008 0,2.457 -0.358,4.838 -1.022,7.089 l 42.457,24.471 c 2.915,-2.787 6.495,-4.885 10.486,-6.031 z m 18.363,-24.423 c 0,-6.272 -5.09,-11.356 -11.356,-11.356 -2.175,0 -4.221,0.611 -5.937,1.687 -3.245,1.992 -5.42,5.578 -5.42,9.669 0,0.123 0,0.206 0.024,0.329 v 0.024 c 0.029,1.228 0.259,2.38 0.664,3.479 0.717,2.022 1.999,3.786 3.662,5.091 1.429,1.152 3.168,1.945 5.061,2.251 0.617,0.129 1.276,0.182 1.946,0.182 2.657,0 5.114,-0.922 7.059,-2.457 2.604,-2.069 4.297,-5.296 4.297,-8.899 m -4.297,90.434 c -1.945,-1.54 -4.402,-2.457 -7.059,-2.457 -1.411,0 -2.739,0.258 -3.991,0.74 -1.1,0.388 -2.122,0.976 -3.016,1.687 -2.228,1.74 -3.815,4.326 -4.226,7.289 -0.071,0.541 -0.124,1.076 -0.124,1.64 0,0.482 0.024,0.97 0.1,1.428 0.512,4.168 3.304,7.648 7.089,9.135 1.299,0.511 2.71,0.787 4.168,0.787 1.558,0 3.068,-0.305 4.426,-0.887 4.062,-1.716 6.93,-5.755 6.93,-10.463 0,-0.641 -0.053,-1.258 -0.158,-1.869 -0.482,-2.839 -1.993,-5.32 -4.139,-7.03 M 29.461,43.145 C 28.232,43.809 -1.152,59.309 -25.963,44.961 -45.855,33.475 -49.822,10.41 -50.616,0.817 l -9.181,-5.29 c -4.579,4.497 -10.845,7.288 -17.746,7.288 -6.83,0 -13.044,-2.709 -17.599,-7.135 l -42.069,24.293 c 0.488,1.97 0.74,4.015 0.74,6.114 0,11.585 -7.776,21.378 -18.386,24.423 v 14.965 c 12.273,7.877 51.198,36.491 51.198,82.07 0,52.732 -52.297,85.702 -54.525,87.054 l -3.709,2.303 -3.68,-2.303 c -2.251,-1.352 -54.554,-34.322 -54.554,-87.054 0,-45.579 38.925,-74.193 51.204,-82.07 V 50.51 c -10.616,-3.045 -18.393,-12.838 -18.393,-24.423 0,-2.099 0.259,-4.144 0.747,-6.114 L -228.644,-4.32 c -4.55,4.426 -10.763,7.135 -17.593,7.135 -14.013,0 -25.423,-11.409 -25.423,-25.422 0,-11.562 7.771,-21.355 18.363,-24.423 v -50.487 c -10.592,-3.068 -18.363,-12.867 -18.363,-24.423 0,-14.019 11.41,-25.423 25.423,-25.423 7.441,0 14.142,3.198 18.768,8.335 l 40.9,-23.576 c -0.488,-1.946 -0.747,-3.992 -0.747,-6.09 0,-14.013 11.41,-25.399 25.423,-25.399 14.019,0 25.422,11.386 25.422,25.399 0,2.098 -0.252,4.144 -0.74,6.09 l 40.893,23.576 c 4.626,-5.137 11.333,-8.335 18.775,-8.335 14.013,0 25.416,11.404 25.416,25.423 0,11.556 -7.77,21.355 -18.357,24.423 v 50.487 c 10.587,3.068 18.357,12.861 18.357,24.423 0,2.046 -0.252,4.038 -0.687,5.931 l 9.158,5.273 c 5.366,-2.534 15.929,-6.678 27.95,-6.678 7.318,0 15.165,1.534 22.736,5.907 24.811,14.325 26.087,47.519 26.14,48.9 l 0.129,4.35 z" /></g><path
           id="path44"
           style="fill:#000000;fill-opacity:1;fill-rule:nonzero;stroke:none"
           d="m 532.791,106.531 h -42.196 v 166.67 h 42.196 z m -43.995,206.654 c 0,13.742 7.655,20.614 22.966,20.614 15.309,0 22.965,-6.872 22.965,-20.614 0,-6.551 -1.914,-11.645 -5.74,-15.289 -3.828,-3.643 -9.571,-5.464 -17.225,-5.464 -15.311,0 -22.966,6.918 -22.966,20.753" /><g
           transform="translate(662.5637,241.5183)"
           id="g46"><path
             id="path48"
             style="fill:#000000;fill-opacity:1;fill-rule:nonzero;stroke:none"
             d="M 0,0 H -36.525 V -134.987 H -78.721 V 0 h -23.244 v 20.338 l 23.244,11.345 v 11.345 c 0,17.616 4.335,30.482 13.005,38.599 8.669,8.115 22.55,12.174 41.643,12.174 14.571,0 27.532,-2.167 38.877,-6.5 L 4.013,56.309 c -8.488,2.675 -16.327,4.013 -23.522,4.013 -5.996,0 -10.329,-1.778 -13.003,-5.327 -2.677,-3.552 -4.013,-8.094 -4.013,-13.628 V 31.683 H 0 Z" /></g></g></g></g></svg>