<?xml version="1.0" encoding="UTF-8" standalone="no" ?>
<!DOCTYPE svg PUBLIC "-//W3C//DTD SVG 1.1//EN" "http://www.w3.org/Graphics/SVG/1.1/DTD/svg11.dtd">
<svg xmlns="http://www.w3.org/2000/svg" xmlns:xlink="http://www.w3.org/1999/xlink" version="1.1" width="288" height="163" viewBox="0 0 288 163" xml:space="preserve">
<desc>Created with Fabric.js 3.6.3</desc>
<defs>
</defs>
<g transform="matrix(0.9 0 0 0.9 144.19 81.5)"  >
<g style=""   >
		<g transform="matrix(1.33 0 0 -1.33 2.11 22.01)" id="path22" clip-path="url(#CLIPPATH_10)"  >
<clipPath id="CLIPPATH_10" >
	<path transform="matrix(1 0 0 1 -1.58 16.51) translate(-141.73, -86.23)" id="path16" d="M 0 172.465 H 283.465 V 0 H 0 Z" stroke-linecap="round" />
</clipPath>
<path style="stroke: none; stroke-width: 1; stroke-dasharray: none; stroke-linecap: butt; stroke-dashoffset: 0; stroke-linejoin: miter; stroke-miterlimit: 4; fill: rgb(0,0,0); fill-rule: nonzero; opacity: 1;"  transform=" translate(-13.76, -23.85)" d="m 0 0 l -0.001 46.32 l 9.506 1.172 l 1.47 -7.261 c 3.11 4.985 7.618 7.477 13.525 7.477 c 1.239 0 2.248 -0.058 3.025 -0.173 L 27.352 38.07 c -1.151 0.174 -2.348 0.26 -3.586 0.26 c -4.178 0 -7.297 -1.109 -9.355 -3.327 c -2.062 -2.219 -3.09 -5.301 -3.09 -9.248 L 11.321 0 Z" stroke-linecap="round" />
</g>
		<g transform="matrix(1.33 0 0 -1.33 50.47 21.95)" id="path26" clip-path="url(#CLIPPATH_11)"  >
<clipPath id="CLIPPATH_11" >
	<path transform="matrix(1 0 0 1 -37.85 16.47) translate(-141.73, -86.23)" id="path16" d="M 0 172.465 H 283.465 V 0 H 0 Z" stroke-linecap="round" />
</clipPath>
<path style="stroke: none; stroke-width: 1; stroke-dasharray: none; stroke-linecap: butt; stroke-dashoffset: 0; stroke-linejoin: miter; stroke-miterlimit: 4; fill: rgb(0,0,0); fill-rule: nonzero; opacity: 1;"  transform=" translate(-0.82, -24.76)" d="m 0 0 c -7.001 0 -12.604 1.196 -16.811 3.587 l 1.167 8.513 c 1.902 -1.037 4.322 -1.966 7.26 -2.787 c 2.94 -0.822 5.618 -1.233 8.038 -1.233 c 2.507 0 4.458 0.469 5.856 1.405 c 1.396 0.936 2.11 2.313 2.138 4.127 c 0 1.643 -0.655 2.94 -1.965 3.89 c -1.312 0.95 -3.811 2.131 -7.498 3.543 c -1.267 0.461 -2.088 0.764 -2.463 0.908 c -4.379 1.699 -7.535 3.593 -9.464 5.683 c -1.93 2.088 -2.897 4.918 -2.897 8.49 c 0 4.322 1.563 7.635 4.69 9.939 c 3.124 2.305 7.481 3.457 13.071 3.457 c 6.05 0 11.366 -1.137 15.946 -3.412 L 14.26 38.287 c -4.525 2.103 -8.831 3.155 -12.922 3.155 c -2.275 0 -4.056 -0.382 -5.337 -1.146 c -1.281 -0.764 -1.923 -1.922 -1.923 -3.479 c 0 -1.467 0.62 -2.614 1.859 -3.435 c 1.238 -0.82 3.658 -1.894 7.261 -3.218 c 0.115 -0.03 0.489 -0.16 1.123 -0.39 c 0.634 -0.23 1.124 -0.419 1.47 -0.562 c 4.35 -1.585 7.548 -3.479 9.593 -5.682 c 2.046 -2.202 3.068 -5.077 3.068 -8.62 C 18.424 10.156 16.811 6.483 13.612 3.89 C 10.414 1.297 5.877 0 0 0" stroke-linecap="round" />
</g>
		<g transform="matrix(1.33 0 0 -1.33 113.27 11.83)" id="path30" clip-path="url(#CLIPPATH_12)"  >
<clipPath id="CLIPPATH_12" >
	<path transform="matrix(1 0 0 1 -84.95 8.87) translate(-141.73, -86.23)" id="path16" d="M 0 172.465 H 283.465 V 0 H 0 Z" stroke-linecap="round" />
</clipPath>
<path style="stroke: none; stroke-width: 1; stroke-dasharray: none; stroke-linecap: butt; stroke-dashoffset: 0; stroke-linejoin: miter; stroke-miterlimit: 4; fill: rgb(0,0,0); fill-rule: nonzero; opacity: 1;"  transform=" translate(2.07, -4.45)" d="M 0 0 L 19.362 20.449 H 5.879 L -13.438 0.552 v 35.383 l -11.322 -2.109 l 0.002 -60.87 h 11.32 h 0.002 v 12.855 l 6.245 6.594 l 14.108 -19.448 h 13.7 z" stroke-linecap="round" />
</g>
		<g transform="matrix(1.33 0 0 -1.33 -111.85 -47.97)" id="path34" clip-path="url(#CLIPPATH_13)"  >
<clipPath id="CLIPPATH_13" >
	<path transform="matrix(1 0 0 1 83.89 -35.98) translate(-141.73, -86.23)" id="path16" d="M 0 172.465 H 283.465 V 0 H 0 Z" stroke-linecap="round" />
</clipPath>
<path style="stroke: none; stroke-width: 1; stroke-dasharray: none; stroke-linecap: butt; stroke-dashoffset: 0; stroke-linejoin: miter; stroke-miterlimit: 4; fill: rgb(0,110,60); fill-rule: nonzero; opacity: 1;"  transform=" translate(7.13, -22.04)" d="m 0 0 v 44.086 c 0 0 -14.263 -7.107 -14.263 -22.218 C -14.263 6.757 0 0 0 0" stroke-linecap="round" />
</g>
		<g transform="matrix(1.33 0 0 -1.33 -92.83 -47.97)" id="path38" clip-path="url(#CLIPPATH_14)"  >
<clipPath id="CLIPPATH_14" >
	<path transform="matrix(1 0 0 1 69.63 -35.98) translate(-141.73, -86.23)" id="path16" d="M 0 172.465 H 283.465 V 0 H 0 Z" stroke-linecap="round" />
</clipPath>
<path style="stroke: none; stroke-width: 1; stroke-dasharray: none; stroke-linecap: butt; stroke-dashoffset: 0; stroke-linejoin: miter; stroke-miterlimit: 4; fill: rgb(0,180,60); fill-rule: nonzero; opacity: 1;"  transform=" translate(-7.13, 22.04)" d="M 0 0 C 0 0 14.263 -7.107 14.263 -22.218 C 14.263 -37.33 0 -44.086 0 -44.086 Z" stroke-linecap="round" />
</g>
		<g transform="matrix(1.33 0 0 -1.33 -44.89 0.14)" id="path42" clip-path="url(#CLIPPATH_15)"  >
<clipPath id="CLIPPATH_15" >
	<path transform="matrix(1 0 0 1 33.67 0.11) translate(-141.73, -86.23)" id="path16" d="M 0 172.465 H 283.465 V 0 H 0 Z" stroke-linecap="round" />
</clipPath>
<path style="stroke: none; stroke-width: 1; stroke-dasharray: none; stroke-linecap: butt; stroke-dashoffset: 0; stroke-linejoin: miter; stroke-miterlimit: 4; fill: rgb(0,110,60); fill-rule: nonzero; opacity: 1;"  transform=" translate(-9.79, -6.7)" d="m 0 0 l 19.599 11.146 c 0 0 -6.766 4.544 -13.483 0.724 C -0.602 8.049 0 0 0 0" stroke-linecap="round" />
</g>
		<g transform="matrix(1.33 0 0 -1.33 -44.88 3.19)" id="path46" clip-path="url(#CLIPPATH_16)"  >
<clipPath id="CLIPPATH_16" >
	<path transform="matrix(1 0 0 1 33.66 2.39) translate(-141.73, -86.23)" id="path16" d="M 0 172.465 H 283.465 V 0 H 0 Z" stroke-linecap="round" />
</clipPath>
<path style="stroke: none; stroke-width: 1; stroke-dasharray: none; stroke-linecap: butt; stroke-dashoffset: 0; stroke-linejoin: miter; stroke-miterlimit: 4; fill: rgb(0,180,60); fill-rule: nonzero; opacity: 1;"  transform=" translate(9.8, 6.73)" d="m 0 0 c 0 0 0.446 -8.138 -6.271 -11.958 c -6.718 -3.82 -13.328 0.812 -13.328 0.812 z" stroke-linecap="round" />
</g>
		<g transform="matrix(1.33 0 0 -1.33 -86.32 0)" id="path50" clip-path="url(#CLIPPATH_17)"  >
<clipPath id="CLIPPATH_17" >
	<path transform="matrix(1 0 0 1 64.74 0) translate(-141.73, -86.23)" id="path16" d="M 0 172.465 H 283.465 V 0 H 0 Z" stroke-linecap="round" />
</clipPath>
<path style="stroke: none; stroke-width: 1; stroke-dasharray: none; stroke-linecap: butt; stroke-dashoffset: 0; stroke-linejoin: miter; stroke-miterlimit: 4; fill: rgb(0,0,0); fill-rule: nonzero; opacity: 1;"  transform=" translate(33.53, -6.02)" d="m 0 0 c -2.626 -1.511 -5.591 -1.244 -7.829 -0.641 l 3.958 2.282 c 0.942 0.54 1.273 1.755 0.726 2.698 C -3.691 5.289 -4.9 5.612 -5.85 5.065 L -9.786 2.799 c 0.598 2.231 1.849 4.922 4.461 6.426 c 3.778 2.18 8.433 0.798 10.57 -0.051 C 4.921 6.9 3.806 2.194 0 0 m -40.582 -42.329 c -0.827 0.806 -1.849 1.41 -2.985 1.741 v 13.304 c 1.237 0.352 2.338 1.036 3.194 1.942 l 11.75 -6.777 c -0.223 -0.692 -0.345 -1.425 -0.345 -2.188 c 0 -0.424 0.036 -0.849 0.115 -1.252 z m -21.657 6.77 c 0.079 0.403 0.115 0.828 0.115 1.252 c 0 0.763 -0.122 1.496 -0.345 2.18 l 11.757 6.778 c 0.856 -0.899 1.957 -1.583 3.187 -1.935 v -13.304 c -1.137 -0.331 -2.159 -0.935 -2.986 -1.741 z m 11.736 37.753 c 0.827 -0.798 1.841 -1.395 2.978 -1.719 v -14.016 c -1.029 -0.295 -1.957 -0.813 -2.741 -1.512 l -12.067 6.966 c 0.137 0.554 0.209 1.129 0.209 1.727 c 0 0.596 -0.072 1.173 -0.209 1.726 z m -7.469 39.316 c 0 10.512 9.267 18.125 12.426 20.413 c 3.166 -2.281 12.426 -9.865 12.426 -20.413 c 0 -8.8 -6.511 -15.175 -10.447 -18.226 v 16.621 c 0 1.094 -0.886 1.979 -1.979 1.979 c -1.094 0 -1.979 -0.885 -1.979 -1.979 V 23.277 c -3.943 3.043 -10.447 9.404 -10.447 18.233 M -28.76 -4.634 c -0.136 -0.553 -0.208 -1.13 -0.208 -1.726 c 0 -0.612 0.079 -1.202 0.223 -1.771 l -12.052 -6.943 c -0.785 0.705 -1.727 1.238 -2.77 1.533 V 0.475 c 1.136 0.324 2.151 0.921 2.979 1.719 z m -13.598 -15.908 c -0.029 -0.972 -0.497 -1.82 -1.209 -2.382 c -0.144 -0.108 -0.303 -0.216 -0.461 -0.303 c -0.453 -0.244 -0.971 -0.38 -1.518 -0.38 c -0.533 0 -1.043 0.136 -1.49 0.374 c -0.172 0.086 -0.338 0.194 -0.489 0.309 c -0.719 0.569 -1.187 1.439 -1.208 2.418 c -0.008 0.028 -0.008 0.065 -0.008 0.093 c 0 0.288 0.036 0.561 0.116 0.828 c 0.172 0.676 0.568 1.259 1.1 1.684 c 0.346 0.265 0.749 0.467 1.188 0.583 c 0.251 0.064 0.518 0.1 0.791 0.1 c 0.288 0 0.561 -0.036 0.827 -0.115 c 0.425 -0.108 0.813 -0.31 1.152 -0.568 c 0.518 -0.418 0.913 -0.987 1.093 -1.649 c 0.079 -0.273 0.122 -0.56 0.122 -0.863 c 0 -0.043 0 -0.086 -0.006 -0.122 z m -5.167 30.393 c 0.547 0.424 1.238 0.683 1.979 0.683 c 0.741 0 1.432 -0.259 1.979 -0.683 c 0.626 -0.497 1.057 -1.217 1.18 -2.044 c 0.021 -0.151 0.035 -0.309 0.035 -0.468 c 0 -1.014 -0.474 -1.921 -1.215 -2.504 c -0.238 -0.187 -0.511 -0.345 -0.799 -0.453 c -0.367 -0.151 -0.763 -0.231 -1.18 -0.231 c -0.417 0 -0.813 0.08 -1.18 0.231 c -0.288 0.108 -0.561 0.266 -0.799 0.453 c -0.741 0.583 -1.216 1.49 -1.216 2.504 c 0 0.159 0.014 0.317 0.036 0.468 c 0.122 0.827 0.554 1.547 1.18 2.044 M -72.471 -6.36 c 0 1.762 1.432 3.194 3.195 3.194 c 0.41 0 0.806 -0.079 1.173 -0.223 c 1.043 -0.41 1.82 -1.36 1.986 -2.511 c 0.021 -0.151 0.035 -0.302 0.035 -0.46 c 0 -0.159 -0.014 -0.31 -0.035 -0.461 c -0.115 -0.834 -0.562 -1.561 -1.188 -2.051 c -0.237 -0.187 -0.503 -0.345 -0.791 -0.453 c -0.367 -0.151 -0.763 -0.23 -1.18 -0.23 c -0.748 0 -1.439 0.259 -1.986 0.691 c -0.734 0.583 -1.209 1.489 -1.209 2.504 m 6.389 -27.947 c 0 -1.151 -0.611 -2.159 -1.525 -2.719 c -0.482 -0.303 -1.058 -0.476 -1.669 -0.476 c -1.763 0 -3.195 1.433 -3.195 3.195 c 0 1.015 0.475 1.921 1.209 2.504 c 0.547 0.432 1.238 0.691 1.986 0.691 c 0.187 0 0.374 -0.015 0.554 -0.05 c 0.533 -0.094 1.014 -0.317 1.417 -0.634 c 0.468 -0.367 0.828 -0.863 1.029 -1.432 c 0.115 -0.309 0.18 -0.64 0.188 -0.985 c 0.006 -0.029 0.006 -0.065 0.006 -0.094 m 13.528 12.455 l -12.132 -6.987 c -0.755 0.641 -1.647 1.123 -2.619 1.403 v 14.205 c 1.138 0.323 2.152 0.927 2.979 1.726 l 11.923 -6.886 c -0.195 -0.64 -0.295 -1.317 -0.295 -2.022 c 0 -0.489 0.05 -0.971 0.144 -1.432 z m 7.008 -28.795 c -1.598 0 -2.921 1.172 -3.159 2.705 c -0.022 0.159 -0.036 0.317 -0.036 0.482 c 0 1.339 0.828 2.482 1.993 2.957 c 0.374 0.151 0.777 0.238 1.202 0.238 c 0.424 0 0.827 -0.087 1.202 -0.238 c 1.165 -0.475 1.992 -1.618 1.992 -2.957 c 0 -0.165 -0.014 -0.323 -0.035 -0.482 c -0.238 -1.533 -1.562 -2.705 -3.159 -2.705 m 21.758 23.211 c -0.971 -0.28 -1.856 -0.754 -2.611 -1.395 l -12.132 7.001 v 0.007 c 0.087 0.453 0.137 0.928 0.137 1.41 c 0 0.691 -0.101 1.36 -0.288 1.993 l 11.944 6.886 c 0.821 -0.784 1.828 -1.374 2.95 -1.697 z m 5.166 -6.871 c 0 -1.762 -1.431 -3.195 -3.194 -3.195 c -0.612 0 -1.187 0.173 -1.669 0.476 c -0.914 0.56 -1.526 1.568 -1.526 2.719 c 0 0.036 0 0.058 0.008 0.094 v 0.007 c 0.006 0.346 0.071 0.669 0.187 0.978 c 0.201 0.569 0.561 1.065 1.028 1.432 c 0.403 0.324 0.892 0.547 1.425 0.634 c 0.173 0.035 0.36 0.05 0.547 0.05 c 0.748 0 1.439 -0.259 1.986 -0.691 c 0.734 -0.583 1.208 -1.489 1.208 -2.504 m -1.208 25.443 c -0.547 -0.432 -1.238 -0.691 -1.986 -0.691 c -0.396 0 -0.77 0.072 -1.122 0.208 c -0.31 0.109 -0.598 0.274 -0.85 0.475 c -0.626 0.49 -1.072 1.217 -1.187 2.051 c -0.022 0.151 -0.036 0.302 -0.036 0.461 c 0 0.136 0.008 0.273 0.029 0.403 c 0.144 1.172 0.928 2.151 1.993 2.568 c 0.367 0.144 0.763 0.223 1.173 0.223 c 0.439 0 0.863 -0.086 1.245 -0.252 c 1.144 -0.481 1.949 -1.618 1.949 -2.942 c 0 -0.18 -0.014 -0.353 -0.043 -0.526 c -0.136 -0.799 -0.561 -1.496 -1.165 -1.978 M 8.289 12.139 c -0.346 0.187 -8.613 4.547 -15.592 0.51 c -5.598 -3.23 -6.714 -9.72 -6.936 -12.419 l -2.584 -1.489 c -1.287 1.267 -3.051 2.051 -4.993 2.051 c -1.921 0 -3.67 -0.763 -4.951 -2.008 L -38.603 5.62 c 0.137 0.554 0.209 1.13 0.209 1.719 c 0 3.26 -2.188 6.015 -5.173 6.872 v 4.209 c 3.453 2.216 14.404 10.267 14.404 23.09 c 0 14.836 -14.714 24.111 -15.34 24.492 l -1.043 0.648 l -1.036 -0.648 C -47.215 65.621 -61.93 56.346 -61.93 41.51 c 0 -12.823 10.951 -20.874 14.405 -23.09 v -4.209 c -2.986 -0.857 -5.173 -3.612 -5.173 -6.872 c 0 -0.589 0.072 -1.165 0.209 -1.719 l -11.837 -6.836 c -1.28 1.245 -3.029 2.008 -4.95 2.008 c -3.943 0 -7.152 -3.209 -7.152 -7.152 c 0 -3.252 2.187 -6.008 5.166 -6.871 v -14.205 c -2.979 -0.863 -5.166 -3.619 -5.166 -6.871 c 0 -3.943 3.209 -7.152 7.152 -7.152 c 2.094 0 3.979 0.899 5.281 2.346 l 11.506 -6.634 c -0.137 -0.547 -0.209 -1.123 -0.209 -1.713 c 0 -3.942 3.209 -7.144 7.152 -7.144 c 3.943 0 7.152 3.202 7.152 7.144 c 0 0.59 -0.072 1.166 -0.209 1.713 l 11.505 6.634 c 1.303 -1.447 3.188 -2.346 5.282 -2.346 c 3.943 0 7.152 3.209 7.152 7.152 c 0 3.252 -2.188 6.008 -5.166 6.871 v 14.205 c 2.978 0.863 5.166 3.619 5.166 6.871 c 0 0.575 -0.072 1.136 -0.194 1.669 l 2.576 1.482 c 1.511 -0.712 4.482 -1.878 7.864 -1.878 c 2.058 0 4.267 0.432 6.397 1.662 c 6.979 4.029 7.339 13.369 7.353 13.758 l 0.036 1.223 z" stroke-linecap="round" />
</g>
</g>
</g>
</svg>